<svg width="256" height="256" viewBox="0 0 256 256" fill="none" xmlns="http://www.w3.org/2000/svg">
<g clip-path="url(#clip0_1_32)">
<circle cx="128.001" cy="128" r="128" fill="#9A1D2E"/>
<path d="M91.1406 128.5C105.043 128.5 116.312 117.23 116.312 103.328C116.312 89.4261 105.043 78.1562 91.1406 78.1562C77.2386 78.1562 65.9688 89.4261 65.9688 103.328C65.9688 117.23 77.2386 128.5 91.1406 128.5Z" fill="white"/>
<path d="M119.809 142.484C109.964 137.485 99.0977 135.492 91.1406 135.492C75.555 135.492 43.5938 145.051 43.5938 164.16V178.844H96.0352V173.226C96.0352 166.583 98.832 159.923 103.727 154.371C107.632 149.938 113.1 145.823 119.809 142.484Z" fill="white"/>
<path d="M156.867 139.688C138.663 139.688 102.328 150.931 102.328 173.25V190.031H211.406V173.25C211.406 150.931 175.071 139.688 156.867 139.688Z" fill="white"/>
<path d="M156.867 128.5C173.859 128.5 187.633 114.726 187.633 97.7344C187.633 80.743 173.859 66.9688 156.867 66.9688C139.876 66.9688 126.102 80.743 126.102 97.7344C126.102 114.726 139.876 128.5 156.867 128.5Z" fill="white"/>
</g>
<defs>
<clipPath id="clip0_1_32">
<rect width="256" height="256" fill="white"/>
</clipPath>
</defs>
</svg>
